<svg xmlns="http://www.w3.org/2000/svg" viewBox="0 0 210.86 112.67"><defs><style>.cls-1{fill:#1d1d1b;}</style></defs><title>Asset 2</title><g id="Layer_2" data-name="Layer 2"><g id="Layer_1-2" data-name="Layer 1"><path class="cls-1" d="M24.3.32V1.64a7.18,7.18,0,0,0-1.13.44,1.73,1.73,0,0,0-.56.48,2.24,2.24,0,0,0-.35.91,10.61,10.61,0,0,0-.12,1.87V27.62H17.06l-9-15.56C6.85,10,6,8.3,5.38,7.1H5.2c.13,2.87.2,5.89.2,9.08v6.44a9.94,9.94,0,0,0,.15,2.1,1.82,1.82,0,0,0,.54,1,3.81,3.81,0,0,0,1.47.63v1.32H0V26.3a5.25,5.25,0,0,0,1.17-.44,1.54,1.54,0,0,0,.64-.65,2.87,2.87,0,0,0,.27-1q.06-.62.06-1.56V5.32A10.62,10.62,0,0,0,2,3.25a1.84,1.84,0,0,0-.54-1A3.62,3.62,0,0,0,0,1.64V.32H8.1l7.08,12.3c.44.77,1,1.82,1.72,3.14s1.33,2.57,1.88,3.74h.32q-.23-4.79-.22-10.44V5.34a12,12,0,0,0-.1-1.88,2.24,2.24,0,0,0-.31-.88,1.7,1.7,0,0,0-.56-.5,6,6,0,0,0-1.17-.44V.32Z"/><path class="cls-1" d="M51.47.32V6.68H48.73a12,12,0,0,0-1.12-2.57,3.57,3.57,0,0,0-1.1-1.06,4.44,4.44,0,0,0-2.18-.39h-5l.58,9.6h2.68A3.07,3.07,0,0,0,44,12a2,2,0,0,0,.83-.83,7.54,7.54,0,0,0,.63-1.8h2.26V17.5H45.45a7.38,7.38,0,0,0-.62-1.77,2.15,2.15,0,0,0-.81-.87,3,3,0,0,0-1.41-.26H40.09l.72,10.68h3.5a6.51,6.51,0,0,0,1.18-.09,2.59,2.59,0,0,0,.86-.31,3.32,3.32,0,0,0,.73-.6,5.52,5.52,0,0,0,.62-.82,8.38,8.38,0,0,0,.57-1.16,18.84,18.84,0,0,0,.66-2h2.74l-.38,7.3h-19V26.3a3.34,3.34,0,0,0,1.35-.51,1.86,1.86,0,0,0,.63-.92,5.37,5.37,0,0,0,.2-1.63c0-.13,0-.28,0-.44l0-.48-.2-3.16H26.15L25.21,21c-.4.8-.69,1.44-.87,1.91a3.75,3.75,0,0,0-.27,1.33,2,2,0,0,0,.5,1.48,2.23,2.23,0,0,0,1.48.56v1.32H17V26.3a3.74,3.74,0,0,0,2-1.24,13.45,13.45,0,0,0,1.78-2.66L32.37.32ZM27.33,16.82h6.78l-.36-5.74c-.09-1.55-.16-3.63-.2-6.26h-.24Z"/><path class="cls-1" d="M56.38,20.88a6.89,6.89,0,0,0,1.67,3.55,4.64,4.64,0,0,0,3.43,1.17,5.31,5.31,0,0,0,2.12-.4,3.32,3.32,0,0,0,1.51-1.29,4.06,4.06,0,0,0,.57-2.23,4.67,4.67,0,0,0-.46-2.15,5.43,5.43,0,0,0-1.48-1.73,16.23,16.23,0,0,0-2.84-1.74,26.24,26.24,0,0,1-2.82-1.62,10.92,10.92,0,0,1-2.15-1.85,7.87,7.87,0,0,1-1.38-2.21,7,7,0,0,1-.49-2.7A7.07,7.07,0,0,1,55.28,3.5,7.42,7.42,0,0,1,58.81.89,14.88,14.88,0,0,1,64.16,0a28.45,28.45,0,0,1,3.4.19,35.64,35.64,0,0,1,3.7.67v5.8H68.52a8.43,8.43,0,0,0-1-2.51,3.63,3.63,0,0,0-1.47-1.37,5,5,0,0,0-2.22-.44,4.92,4.92,0,0,0-2,.4A3.25,3.25,0,0,0,60.4,3.93a3.37,3.37,0,0,0-.52,1.91,4.26,4.26,0,0,0,.45,2,5.21,5.21,0,0,0,1.51,1.66,21.09,21.09,0,0,0,3.08,1.85,19.81,19.81,0,0,1,3.87,2.51,8.09,8.09,0,0,1,2.08,2.68,7.92,7.92,0,0,1,.67,3.37,7.85,7.85,0,0,1-1.14,4.27A7.32,7.32,0,0,1,67.08,27a12.22,12.22,0,0,1-5,1,42,42,0,0,1-4.25-.23A35.3,35.3,0,0,1,53.64,27V20.88Z"/><path class="cls-1" d="M79.65,27.62V26.3A5.27,5.27,0,0,0,81,25.93a1.55,1.55,0,0,0,.73-.65,2.65,2.65,0,0,0,.3-1.07c0-.43.06-1,.06-1.61V2.66H80.45a4.7,4.7,0,0,0-1.84.28,2.84,2.84,0,0,0-1.11.88,5.61,5.61,0,0,0-.81,1.61c-.23.67-.41,1.31-.56,1.91H73.39v-7H96.93v7H94.19c-.25-.91-.45-1.57-.6-2a5.89,5.89,0,0,0-.49-1.09,3.87,3.87,0,0,0-.57-.75A2.62,2.62,0,0,0,91.89,3,2.93,2.93,0,0,0,91,2.75a7.91,7.91,0,0,0-1.33-.09H88.27V22.6a16,16,0,0,0,.06,1.61,2.75,2.75,0,0,0,.22.89,1.8,1.8,0,0,0,.39.55,2.12,2.12,0,0,0,.64.38,5,5,0,0,0,1.11.27v1.32Z"/><path class="cls-1" d="M113.8,6.88a13.65,13.65,0,0,0,.47-1.58,7.1,7.1,0,0,0,.17-1.56,2.07,2.07,0,0,0-.51-1.5,2.34,2.34,0,0,0-1.57-.6V.32H121V1.64a3,3,0,0,0-1.29.49,3.7,3.7,0,0,0-1,1.06,13.47,13.47,0,0,0-1,2.25l-8.38,22.32h-4.62l-6.6-22.4a15.52,15.52,0,0,0-.74-2.13,2.89,2.89,0,0,0-.78-1,3.14,3.14,0,0,0-1.34-.57V.32h11.06V1.64a2.67,2.67,0,0,0-1.54.58,1.69,1.69,0,0,0-.5,1.3,6.88,6.88,0,0,0,.12,1.29c.08.42.25,1.09.5,2l4,14.36Z"/><path class="cls-1" d="M140.82.32V6.68h-2.74A12,12,0,0,0,137,4.11a3.47,3.47,0,0,0-1.1-1.06,4.41,4.41,0,0,0-2.18-.39h-4.36v9.6H132a3.07,3.07,0,0,0,1.38-.25,2,2,0,0,0,.83-.83,7.54,7.54,0,0,0,.63-1.8h2.26V17.5H134.8a7,7,0,0,0-.62-1.77,2,2,0,0,0-.81-.87A3,3,0,0,0,132,14.6h-2.64V25.28h4.34a6.51,6.51,0,0,0,1.18-.09,2.59,2.59,0,0,0,.86-.31,3.11,3.11,0,0,0,.73-.6,4.91,4.91,0,0,0,.62-.82,8.38,8.38,0,0,0,.57-1.16,18.84,18.84,0,0,0,.66-2H141l-.38,7.3H121V26.3a5.41,5.41,0,0,0,1.17-.43,1.47,1.47,0,0,0,.64-.64,2.87,2.87,0,0,0,.27-1q.06-.63.06-1.59V5.36c0-.63,0-1.15-.05-1.58a2.64,2.64,0,0,0-.26-1,1.6,1.6,0,0,0-.64-.65A4.5,4.5,0,0,0,121,1.64V.32Z"/><path class="cls-1" d="M152.63.32a25,25,0,0,1,5.58.52,12.45,12.45,0,0,1,4,1.64A9.85,9.85,0,0,1,165,5.15a10.73,10.73,0,0,1,1.59,3.6,18.73,18.73,0,0,1,.52,4.63,19.69,19.69,0,0,1-.73,5.6,11.54,11.54,0,0,1-2.19,4.24,10.56,10.56,0,0,1-3.19,2.6,14.09,14.09,0,0,1-4.35,1.44,32.73,32.73,0,0,1-5.34.36h-9.08V26.3a5.41,5.41,0,0,0,1.17-.43,1.47,1.47,0,0,0,.64-.64,2.87,2.87,0,0,0,.27-1q.06-.63.06-1.59V5.36c0-.63,0-1.15-.05-1.58a2.64,2.64,0,0,0-.26-1,1.6,1.6,0,0,0-.64-.65,4.5,4.5,0,0,0-1.19-.45V.32ZM150.57,25.2a15.72,15.72,0,0,0,1.82.06,9.37,9.37,0,0,0,3.7-.64A5.49,5.49,0,0,0,158,23.3a8.76,8.76,0,0,0,2-3.58,20.61,20.61,0,0,0,.72-5.86,16.87,16.87,0,0,0-1-6.31,7.61,7.61,0,0,0-2.87-3.7,8,8,0,0,0-4.43-1.19c-.82,0-1.42,0-1.78,0Z"/><path class="cls-1" d="M189.63,22.6c0,.47,0,.9,0,1.3a4.43,4.43,0,0,0,.16,1,1.79,1.79,0,0,0,.35.64,2.21,2.21,0,0,0,.63.45,4.87,4.87,0,0,0,1,.33v1.32h-10.5V26.3a5.41,5.41,0,0,0,1.17-.43,1.47,1.47,0,0,0,.64-.64,2.87,2.87,0,0,0,.27-1q.06-.63.06-1.59V5.34c0-.64,0-1.17-.05-1.58a2.68,2.68,0,0,0-.26-1,1.54,1.54,0,0,0-.64-.65,4.92,4.92,0,0,0-1.19-.44V.32h10.5V1.64a4.6,4.6,0,0,0-1.21.47,1.8,1.8,0,0,0-.59.61,2.91,2.91,0,0,0-.28.94,14.09,14.09,0,0,0-.08,1.7Z"/><path class="cls-1" d="M195.7,20.88a7,7,0,0,0,1.67,3.55,4.66,4.66,0,0,0,3.43,1.17,5.27,5.27,0,0,0,2.12-.4,3.32,3.32,0,0,0,1.51-1.29,4.06,4.06,0,0,0,.57-2.23,4.67,4.67,0,0,0-.46-2.15,5.31,5.31,0,0,0-1.48-1.73,15.86,15.86,0,0,0-2.84-1.74,26.24,26.24,0,0,1-2.82-1.62,11.21,11.21,0,0,1-2.15-1.85,7.87,7.87,0,0,1-1.38-2.21,7.22,7.22,0,0,1-.49-2.7A7.07,7.07,0,0,1,194.6,3.5,7.47,7.47,0,0,1,198.13.89,14.92,14.92,0,0,1,203.48,0a28.45,28.45,0,0,1,3.4.19,35.18,35.18,0,0,1,3.7.67v5.8h-2.74a8.16,8.16,0,0,0-1-2.51,3.63,3.63,0,0,0-1.47-1.37,5.61,5.61,0,0,0-4.26,0,3.25,3.25,0,0,0-1.42,1.19,3.45,3.45,0,0,0-.52,1.91,4.26,4.26,0,0,0,.45,2,5.33,5.33,0,0,0,1.51,1.66,21.65,21.65,0,0,0,3.08,1.85,19.81,19.81,0,0,1,3.87,2.51,8,8,0,0,1,2.08,2.68,7.92,7.92,0,0,1,.67,3.37,7.85,7.85,0,0,1-1.14,4.27A7.27,7.27,0,0,1,206.4,27a12.22,12.22,0,0,1-5,1,42.15,42.15,0,0,1-4.25-.23A35.64,35.64,0,0,1,193,27V20.88Z"/><path class="cls-1" d="M22.77,57.42V56.7c1.37-.19,1.43-.42,1.13-1.3-.24-.72-.61-1.72-1-2.75H18.58c-.28.77-.58,1.59-.83,2.33-.46,1.37,0,1.54,1.7,1.72v.72H14.27V56.7c1.35-.18,1.7-.36,2.43-2.2l4.46-11.16.91-.17c1.37,3.71,2.83,7.61,4.22,11.24.75,2,.95,2.11,2.39,2.29v.72Zm-2-10.67c-.64,1.65-1.29,3.27-1.86,4.88h3.62Z"/><path class="cls-1" d="M39.48,43.47a6.71,6.71,0,0,1,3.78.89,3.59,3.59,0,0,1,1.58,3.16c0,3.12-2.65,4.42-4.86,4.43a5.08,5.08,0,0,1-.62,0L38,51.56v3.07c0,1.81.15,1.88,2.06,2.07v.72H33.57V56.7c1.7-.2,1.87-.28,1.87-2.08V46.3c0-1.84-.23-2-1.87-2.11v-.72ZM38,50.71a3.14,3.14,0,0,0,1.29.24c1.14,0,2.81-.63,2.81-3.42,0-2.39-1.39-3.24-2.93-3.24a1.52,1.52,0,0,0-1,.23c-.16.14-.21.37-.21.78Z"/><path class="cls-1" d="M56.4,57.42V56.7c1.37-.19,1.43-.42,1.13-1.3-.24-.72-.62-1.72-1-2.75H52.2c-.27.77-.58,1.59-.82,2.33-.46,1.37,0,1.54,1.7,1.72v.72H47.89V56.7c1.36-.18,1.7-.36,2.44-2.2l4.46-11.16.91-.17c1.36,3.71,2.83,7.61,4.21,11.24.76,2,1,2.11,2.39,2.29v.72Zm-2-10.67c-.65,1.65-1.29,3.27-1.87,4.88h3.63Z"/><path class="cls-1" d="M80.43,57.57l-.69,0c-2.32-.12-3.13-.64-3.88-1.7s-1.51-2.47-2.23-3.69c-.36-.62-.65-.75-1.48-.75h-.54v3.22c0,1.76.22,1.9,1.87,2.09v.72H67.2V56.7c1.68-.18,1.86-.33,1.86-2.09V46.26c0-1.74-.22-1.92-1.86-2.07v-.72h6a6.38,6.38,0,0,1,3.73.78,3.27,3.27,0,0,1,1.45,2.85,3.77,3.77,0,0,1-2.72,3.55c.35.66,1.21,2.07,1.86,3.05a18.19,18.19,0,0,0,1.65,2.22,2.8,2.8,0,0,0,1.43,1Zm-8.09-7a3.3,3.3,0,0,0,2.2-.58,3,3,0,0,0,1.07-2.56c0-2.28-1.39-3.1-2.75-3.1a1.63,1.63,0,0,0-1,.21c-.16.14-.21.38-.21.85v5.18Z"/><path class="cls-1" d="M96.43,47.06a6.8,6.8,0,0,0-.84-2c-.37-.5-.55-.66-1.79-.66H92.15V54.63c0,1.76.2,1.92,2.16,2.07v.72H87.49V56.7c1.89-.15,2.07-.31,2.07-2.07V44.41H88c-1.2,0-1.54.17-1.93.73a8,8,0,0,0-.82,1.94h-.76c.14-1.48.29-3,.34-4.13h.59c.32.5.57.52,1.2.52h8.56A1.31,1.31,0,0,0,96.4,43H97c0,.93.1,2.7.21,4Z"/><path class="cls-1" d="M114.28,57.42V56.7c1.67-.18,1.76-.32,1.76-2.38V45.81c-1.62,3.78-3.71,8.58-5,11.61h-.66c-1.16-3-3-7.62-4.58-11.42-.31,7-.31,8.47-.31,9.12,0,1.17.49,1.42,2,1.58v.72H102.3V56.7c1.23-.12,1.78-.36,2-1.61.1-.75.16-1.81.68-9.16.07-1.06-.1-1.56-2-1.74v-.72h4.32l4.35,10,4.49-10h4.26v.72c-1.76.19-2,.37-1.93,2l.14,8.12c.05,2.06.13,2.15,1.92,2.38v.72Z"/><path class="cls-1" d="M137.87,53.85c-.11.58-.71,3-.91,3.57H126.07v-.71c2-.18,2.1-.32,2.1-2.1v-8.3c0-1.86-.25-2-1.76-2.12v-.72h6.84c2.17,0,2.95,0,3.23,0,0,.44.13,2.15.21,3.41l-.77.11a5.62,5.62,0,0,0-.82-1.87c-.37-.52-.73-.66-1.89-.66h-1.62c-.77,0-.84.05-.84.74v4.58H133c1.34,0,1.52-.32,1.82-1.82h.77v4.66h-.77c-.32-1.58-.5-1.82-1.85-1.82h-2.18v3.89c0,1.49.2,1.83,1.44,1.85h1.69c1.24,0,1.52-.16,2-.73a9.37,9.37,0,0,0,1.26-2.09Z"/><path class="cls-1" d="M158.22,44.19c-1.34.17-1.76.42-1.82,1.4-.05.78-.11,1.57-.11,3.49v8.56h-1.07l-9-10.9v5c0,1.89.05,2.77.1,3.39.07,1,.56,1.43,2.13,1.54v.72h-5.29V56.7c1.26-.11,1.79-.43,1.91-1.46a31.63,31.63,0,0,0,.12-3.48V46.54a2.33,2.33,0,0,0-.44-1.63c-.4-.54-.89-.62-1.85-.72v-.72h3.85l8.51,10V49.08c0-1.92,0-2.7-.1-3.44-.06-.94-.46-1.34-2.22-1.45v-.72h5.31Z"/><path class="cls-1" d="M175.69,47.06a7.09,7.09,0,0,0-.84-2c-.37-.5-.56-.66-1.8-.66h-1.64V54.63c0,1.76.2,1.92,2.15,2.07v.72h-6.82V56.7c1.89-.15,2.07-.31,2.07-2.07V44.41h-1.53c-1.2,0-1.54.17-1.93.73a8.43,8.43,0,0,0-.82,1.94h-.76c.15-1.48.29-3,.34-4.13h.59c.32.5.57.52,1.2.52h8.56a1.3,1.3,0,0,0,1.19-.52h.59c0,.93.1,2.7.2,4Z"/><path class="cls-1" d="M190.07,46.91c-.4-1.39-1-2.89-3-2.89A2,2,0,0,0,185,46.19c0,1.28.84,2,2.69,2.94,2.4,1.21,3.74,2.28,3.74,4.38,0,2.43-2,4.23-5,4.23a10.92,10.92,0,0,1-3.49-.68c-.15-.53-.47-2.49-.62-3.55l.77-.19c.43,1.39,1.55,3.56,3.69,3.56A2.11,2.11,0,0,0,189,54.59c0-1.39-.81-2.09-2.64-3.08-2.24-1.21-3.63-2.27-3.63-4.42s1.7-3.92,4.78-3.92a15.19,15.19,0,0,1,3,.39c.09.79.21,1.81.39,3.18Z"/><polygon class="cls-1" points="10.03 80.91 12.95 85.95 20.01 85.97 15.02 90.81 18.19 99.17 10.03 95.35 1.88 99.17 5.05 90.81 0.06 85.97 7.11 85.95 10.03 80.91"/><polygon class="cls-1" points="41.83 94.41 44.75 99.45 51.8 99.47 46.82 104.31 49.99 112.67 41.83 108.85 33.68 112.67 36.85 104.31 31.86 99.47 38.91 99.45 41.83 94.41"/><polygon class="cls-1" points="200.83 80.91 203.75 85.95 210.8 85.97 205.82 90.81 208.99 99.17 200.83 95.35 192.67 99.17 195.84 90.81 190.86 85.97 197.91 85.95 200.83 80.91"/><polygon class="cls-1" points="73.63 80.91 76.55 85.95 83.61 85.97 78.62 90.81 81.79 99.17 73.63 95.35 65.48 99.17 68.65 90.81 63.66 85.97 70.71 85.95 73.63 80.91"/><polygon class="cls-1" points="105.43 94.41 108.35 99.45 115.4 99.47 110.42 104.31 113.59 112.67 105.43 108.85 97.28 112.67 100.45 104.31 95.46 99.47 102.51 99.45 105.43 94.41"/><polygon class="cls-1" points="137.23 80.91 140.15 85.95 147.2 85.97 142.22 90.81 145.39 99.17 137.23 95.35 129.07 99.17 132.25 90.81 127.26 85.97 134.31 85.95 137.23 80.91"/><polygon class="cls-1" points="169.03 94.41 171.95 99.45 179 99.47 174.02 104.31 177.19 112.67 169.03 108.85 160.87 112.67 164.04 104.31 159.06 99.47 166.11 99.45 169.03 94.41"/></g></g></svg>