<svg xmlns="http://www.w3.org/2000/svg" viewBox="0 0 288.23 176.19"><title>Asset 3</title><g id="Layer_2" data-name="Layer 2"><g id="Layer_1-2" data-name="Layer 1"><path d="M284.57,94.55q-2.19,8.79-4.25,15.55a54.62,54.62,0,0,1-5.18,12,36,36,0,0,1-8,9.33A54.59,54.59,0,0,1,254.6,139a55.43,55.43,0,0,1-13.76,4.23,47.79,47.79,0,0,1-13.74.38,43.68,43.68,0,0,1-13-3.68A45.85,45.85,0,0,1,202.17,132q-11-10-18.55-26.7a118.32,118.32,0,0,1-7.28-20.52A76.65,76.65,0,0,1,174,66.85q0-15.16,6.82-25.57a44.2,44.2,0,0,1,19.27-16,49.2,49.2,0,0,1,14.61-4.18A38,38,0,0,1,229,22.19a46.73,46.73,0,0,1,14.26,6.87,78.07,78.07,0,0,1,14.2,13.05l2.83-1.28L238.47,0l-3.19,1.44a16,16,0,0,1,0,7.43,6.65,6.65,0,0,1-3.79,4.63q-1.42.75-6.39.46a64.06,64.06,0,0,0-29.46,5.38,69.38,69.38,0,0,0-14,8.42A68,68,0,0,0,170.16,39a66.22,66.22,0,0,0-8.44,13.71,68.2,68.2,0,0,0-5,15.61,68.6,68.6,0,0,0-.68,23.35,83.65,83.65,0,0,0,2.08,10l-3.56,1.14-1-.53a2,2,0,0,0-1.44-.16l-9,2.27-.53-1a2.91,2.91,0,0,0-3.39-1.43L63.73,124.08a6.41,6.41,0,0,1-2.3.25,99.91,99.91,0,0,0-10.68-.41c-11.83,1-35.73,7.33-45.25,14.42a18,18,0,0,0-4.27,5.36A24.65,24.65,0,0,0,0,151.49a45.59,45.59,0,0,0,1.85,9.87,39.35,39.35,0,0,0,3.92,8.23,21.48,21.48,0,0,0,5,4.68,21,21,0,0,0,7.38,1.92c11.74.14,34.72-8.14,44.74-14.26a106.27,106.27,0,0,0,9-7.15,6.51,6.51,0,0,1,2.3-1.28l74.6-23.78a2.62,2.62,0,0,0,1.82-2.56l0-1.22,8.33-2.66a2.09,2.09,0,0,0,1.12-.86l.74-1.16,4.61-1.47a70.2,70.2,0,0,0,28,29q27.12,15.24,58,1.3a69.78,69.78,0,0,0,15-9,52.81,52.81,0,0,0,11-12,59.47,59.47,0,0,0,7.2-15.24,90.15,90.15,0,0,0,3.61-18.79Z"/><ellipse cx="226.79" cy="82.42" rx="40.55" ry="51.14" transform="translate(-14.06 97.13) rotate(-23.47)"/></g></g></svg>